<svg width="42" height="42" viewBox="0 0 42 42" fill="none" xmlns="http://www.w3.org/2000/svg">
<path d="M33.7239 15.0877C33.7239 7.88606 28.0712 2.04807 21.0982 2.04807C14.1252 2.04807 8.47243 7.88615 8.47243 15.0877C8.47243 18.3443 9.62849 21.322 11.5397 23.6071H11.5397L14.3013 28.6132C15.0226 29.9487 15.2904 30.811 16.4991 30.811H25.504C26.7128 30.811 27.0684 29.9029 27.7018 28.6132L30.6567 23.6071H30.6566C32.5678 21.322 33.7239 18.3443 33.7239 15.0877Z" fill="#FFE46A"/>
<path d="M9.25354 16.6757C9.25354 9.23376 14.8627 3.08305 22.1444 2.0972C21.7842 2.06529 21.42 2.04807 21.0518 2.04807C14.0789 2.04807 8.42609 7.88615 8.42609 15.0877C8.42609 17.4576 9.03878 19.6793 10.1087 21.5943C9.555 20.0563 9.25354 18.4007 9.25354 16.6757Z" fill="#FFF0B7"/>
<path d="M33.7239 15.1156C33.7239 12.5361 32.9985 10.1318 31.7472 8.1078C32.0113 9.15173 32.1506 10.2331 32.1506 11.3411C32.1506 19.9096 23.8541 26.8879 13.49 27.1705L14.3013 28.6412C15.0226 29.9767 15.2904 30.839 16.4991 30.839H25.504C26.7128 30.839 27.0684 29.9309 27.7018 28.6412L30.6567 23.6351H30.6566C32.5678 21.3499 33.7239 18.3722 33.7239 15.1156Z" fill="#FFDA00"/>
<path d="M26.4063 17.3252C26.4185 17.3145 26.4306 17.3047 26.4429 17.2928C26.6716 17.0741 26.8598 16.7251 26.7022 16.4014C26.0559 15.0745 24.0797 14.6535 22.6397 15.0929C22.5668 15.1152 22.4961 15.1394 22.4274 15.1655C21.643 14.7076 20.6692 14.5975 19.8023 14.8728C19.6978 14.906 19.597 14.9442 19.5006 14.9871C19.0261 14.7098 18.471 14.5715 17.9179 14.625C16.7603 14.737 15.7543 15.6758 15.555 16.8195L15.4638 16.876C16.2527 18.1508 18.3291 21.8037 18.4622 23.3755C18.63 25.3586 18.4624 30.7414 18.4606 30.7955L19.4445 30.8266C19.4516 30.6032 19.6156 25.3323 19.443 23.2925C19.366 22.383 18.8095 20.9335 17.7889 18.9842C17.3125 18.0743 16.85 17.2755 16.5701 16.8041C16.7637 16.1769 17.3584 15.6681 18.0127 15.6049C18.2119 15.5856 18.414 15.6079 18.6075 15.6647C18.5342 15.7588 18.4705 15.8584 18.4172 15.9631C18.0852 16.614 18.2239 17.4313 18.7398 17.8643C19.0454 18.1206 19.4893 18.215 19.8986 18.1104C20.2798 18.0129 20.5745 17.7624 20.707 17.423C20.826 17.118 20.8159 16.766 20.6769 16.3766C20.5963 16.1511 20.4834 15.9404 20.3446 15.7487C20.7146 15.6767 21.1014 15.6987 21.4611 15.8097C21.3204 15.9717 21.2128 16.152 21.142 16.3475C20.9907 16.766 21.0576 17.2632 21.3166 17.6454C21.5398 17.9749 21.879 18.1707 22.2474 18.1828C22.2598 18.1832 22.2721 18.1835 22.2844 18.1835C22.6072 18.1835 22.9135 18.0447 23.1508 17.79C23.4294 17.4908 23.5713 17.0755 23.5301 16.6789C23.5039 16.4268 23.4143 16.1803 23.2699 15.9516C24.2736 15.7692 25.2554 16.1083 25.6802 16.6231C25.4239 17.0496 24.8975 17.9446 24.3531 18.9843C23.3326 20.9337 22.7759 22.3833 22.699 23.2927C22.5264 25.3325 22.6905 30.6034 22.6975 30.8268L23.6814 30.7957C23.6796 30.7415 23.512 25.3591 23.6798 23.3757C23.7995 21.9606 25.4937 18.8602 26.4063 17.3252ZM19.7899 17.0651C19.767 17.1239 19.6807 17.15 19.6548 17.1567C19.5522 17.1828 19.4362 17.1637 19.3724 17.1103C19.2071 16.9716 19.1712 16.651 19.2939 16.4104C19.3319 16.336 19.3831 16.2649 19.4457 16.1986C19.5778 16.3485 19.6829 16.5206 19.7498 16.7078C19.8043 16.8604 19.8189 16.9907 19.7899 17.0651ZM22.4305 17.1188C22.4017 17.1495 22.3431 17.2002 22.2796 17.1988C22.2114 17.1966 22.1575 17.1317 22.1313 17.0931C22.0498 16.9728 22.0237 16.8038 22.0676 16.6822C22.1183 16.5419 22.2162 16.4272 22.3304 16.3348C22.4575 16.4784 22.5355 16.6329 22.5509 16.7806C22.5627 16.893 22.5142 17.0289 22.4305 17.1188Z" fill="#FAAF63"/>
<path d="M25.9163 33.0341H16.2337C15.6923 33.0341 15.2494 33.477 15.2494 34.0184V34.5891C15.2494 35.1305 15.6923 35.5735 16.2337 35.5735H19.3609C18.4285 35.9204 17.4439 36.7453 17.4439 37.7019V38.0858C18.1923 38.9269 18.8892 40.3893 20.2168 40.3893H22.0124C23.0582 40.3893 23.801 39.2604 24.706 38.0858V37.7019C24.706 36.7453 23.7667 35.9204 22.8564 35.5735H25.9163C26.4577 35.5735 26.9007 35.1305 26.9007 34.5891V34.0184C26.9007 33.477 26.4577 33.0341 25.9163 33.0341Z" fill="#6B83A5"/>
<path d="M26.6114 33.0341H15.5386C14.9972 33.0341 14.5542 32.5911 14.5542 32.0497V31.479C14.5542 30.9376 14.9972 30.4946 15.5386 30.4946H26.6114C27.1528 30.4946 27.5958 30.9376 27.5958 31.479V32.0497C27.5958 32.5911 27.1528 33.0341 26.6114 33.0341ZM26.0366 37.1287V36.558C26.0366 36.0166 25.5937 35.5736 25.0523 35.5736H17.0978C16.5564 35.5736 16.1134 36.0166 16.1134 36.558V37.1287C16.1134 37.6701 16.5564 38.113 17.0978 38.113H25.0523C25.5937 38.113 26.0366 37.6701 26.0366 37.1287Z" fill="#ABBDDB"/>
</svg>
